HIERARCHY
ROOT Hips
{
	OFFSET 0.00 0.00 0.00
	CHANNELS 6 Xposition Yposition Zposition Xrotation Yrotation Zrotation
	JOINT RightUpLeg
	{
		OFFSET -4.47808 0.00000 0.00000
		CHANNELS 3 Xrotation Yrotation Zrotation
		JOINT RightLeg
		{
			OFFSET 0.00000 -16.40577 0.00000
			CHANNELS 3 Xrotation Yrotation Zrotation
			JOINT RightFoot
			{
				OFFSET 0.00000 -14.64414 0.00000
				CHANNELS 3 Xrotation Yrotation Zrotation
				JOINT RightToeBase
				{
					OFFSET 0.00000 -1.50274 5.60831
					CHANNELS 3 Xrotation Yrotation Zrotation
					End Site
					{
						OFFSET 0.00000 0.00000 2.95275
					}
				}
			}
		}
	}
	JOINT LeftUpLeg
	{
		OFFSET 4.47808 0.00000 0.00000
		CHANNELS 3 Xrotation Yrotation Zrotation
		JOINT LeftLeg
		{
			OFFSET 0.00000 -16.40577 0.00000
			CHANNELS 3 Xrotation Yrotation Zrotation
			JOINT LeftFoot
			{
				OFFSET 0.00000 -14.64414 0.00000
				CHANNELS 3 Xrotation Yrotation Zrotation
				JOINT LeftToeBase
				{
					OFFSET 0.00000 -1.50274 5.60831
					CHANNELS 3 Xrotation Yrotation Zrotation
					End Site
					{
						OFFSET 0.00000 0.00000 2.95275
					}
				}
			}
		}
	}
	JOINT Spine
	{
		OFFSET 0.00000 6.06821 0.00000
		CHANNELS 3 Xrotation Yrotation Zrotation
		JOINT RightShoulder
		{
			OFFSET 0.00000 10.01392 0.00000
			CHANNELS 3 Xrotation Yrotation Zrotation
			JOINT RightArm
			{
				OFFSET -7.19022 0.00000 0.00000
				CHANNELS 3 Xrotation Yrotation Zrotation
				JOINT RightForeArm
				{
					OFFSET -10.17747 0.00000 0.00000
					CHANNELS 3 Yrotation Zrotation Xrotation
					JOINT RightHand
					{
						OFFSET -8.39211 0.00000 0.00000
						CHANNELS 3 Xrotation Yrotation Zrotation
						End Site
						{
							OFFSET -3.93700 0.00000 0.00000
						}
						JOINT RightHandThumb1
						{
							OFFSET 0.00000 0.00000 0.00000
							CHANNELS 3 Xrotation Zrotation Yrotation
							End Site
							{
								OFFSET 0.00000 0.00000 3.93700
							}
						}
					}
				}
			}
		}
		JOINT LeftShoulder
		{
			OFFSET 0.00000 10.01392 0.00000
			CHANNELS 3 Xrotation Yrotation Zrotation
			JOINT LeftArm
			{
				OFFSET 7.19022 0.00000 0.00000
				CHANNELS 3 Xrotation Yrotation Zrotation
				JOINT LeftForeArm
				{
					OFFSET 10.17747 0.00000 0.00000
					CHANNELS 3 Yrotation Zrotation Xrotation
					JOINT LeftHand
					{
						OFFSET 8.39211 0.00000 0.00000
						CHANNELS 3 Xrotation Yrotation Zrotation
						End Site
						{
							OFFSET 3.93700 0.00000 0.00000
						}
						JOINT LeftHandThumb1
						{
							OFFSET 0.00000 0.00000 0.00000
							CHANNELS 3 Xrotation Zrotation Yrotation
							End Site
							{
								OFFSET 0.00000 0.00000 3.93700
							}
						}
					}
				}
			}
		}
		JOINT Head
		{
			OFFSET 0.00000 15.77748 0.00000
			CHANNELS 3 Xrotation Yrotation Zrotation
			End Site
			{
				OFFSET 0.00000 4.52755 0.00000
			}
		}
	}
}
MOTION
Frames: 20
Frame Time: 0.008333
 -3.9188 5.6314 -12.0516 34.9558 -32.0801 55.9018 -87.5724 -44.5439 25.9630 127.8332 -0.0000 -0.0000 15.4422 6.4584 15.7088 0.5154 -0.0000 0.0000 18.8135 -36.2571 53.6873 155.6960 0.0000 0.0000 49.3417 -21.0657 14.3157 -38.9187 0.0000 -0.0000 -8.9518 -9.6735 -18.3365 10.0144 -16.7694 -11.2638 -38.8573 55.5801 97.9029 25.7851 0.0000 7.5727 23.5734 9.5139 -69.2531 32.8623 0.0000 -24.3270 18.8260 24.4761 18.7557 61.5641 -46.9408 -38.9727 -63.8832 0.0000 -66.8702 4.0917 7.6611 -28.2175 33.1476 -0.0000 26.2537 -9.5641 39.1895 -12.5803
 -3.9197 5.6321 -12.0518 34.9646 -32.0745 55.9176 -87.5758 -44.5312 25.9734 127.8264 -0.0000 -0.0000 15.4827 6.4324 15.8056 0.4823 -0.0000 -0.0000 18.7745 -36.2470 53.6545 155.6972 0.0000 -0.0000 49.3481 -21.0757 14.2822 -38.9838 0.0000 -0.0000 -8.9759 -9.6804 -18.3152 10.0162 -16.7667 -11.2739 -38.8183 55.5504 97.8709 25.8311 0.0000 7.6771 23.5719 9.5179 -69.2438 32.8623 0.0000 -24.3270 18.8007 24.5131 18.7391 61.5351 -46.9156 -39.0161 -63.8688 0.0000 -66.8291 4.1015 7.6827 -28.2080 33.1476 -0.0000 26.2537 -9.6357 39.1846 -12.5742
 -3.9211 5.6315 -12.0519 34.9583 -32.0710 55.9214 -87.5794 -44.5281 25.9642 127.8319 -0.0000 -0.0000 15.4676 6.4393 15.7986 0.5390 0.0000 0.0000 18.7660 -36.2434 53.6448 155.6937 0.0000 -0.0000 49.3592 -21.0879 14.2452 -39.0712 0.0000 -0.0000 -8.9839 -9.6652 -18.2938 10.0069 -16.7946 -11.2765 -38.8027 55.5336 97.8724 25.8385 0.0000 7.7221 23.6208 9.4986 -69.3260 32.8623 0.0000 -24.3270 18.7690 24.5215 18.7385 61.5346 -46.9053 -39.0237 -63.8546 0.0000 -66.8324 4.1140 7.7031 -28.2185 33.1476 -0.0000 26.2537 -9.6889 39.1634 -12.5756
 -3.9217 5.6322 -12.0533 34.9688 -32.0531 55.9271 -87.5924 -44.5257 25.9714 127.8243 0.0000 0.0000 15.4512 6.4360 15.7599 0.5402 -0.0000 -0.0000 18.7592 -36.2541 53.6406 155.6919 -0.0000 -0.0000 49.3866 -21.1399 14.2567 -39.1018 0.0000 -0.0000 -9.0160 -9.6466 -18.2654 10.0022 -16.8034 -11.2888 -38.7582 55.5205 97.8523 25.8777 0.0000 7.7097 23.6376 9.5207 -69.2975 32.8623 0.0000 -24.3270 18.7084 24.5180 18.7444 61.5992 -46.9089 -38.9941 -63.8473 0.0000 -66.8430 4.1105 7.6967 -28.2174 33.1476 -0.0000 26.2537 -9.7247 39.1512 -12.5807
 -3.9233 5.6325 -12.0528 34.9664 -32.0578 55.9355 -87.5837 -44.5163 25.9766 127.8228 0.0000 0.0000 15.4748 6.4214 15.7726 0.4816 -0.0000 -0.0000 18.7123 -36.2277 53.6088 155.6942 0.0000 0.0000 49.3667 -21.1002 14.1889 -39.0242 0.0000 -0.0000 -9.0175 -9.6098 -18.2457 9.9992 -16.8243 -11.2883 -38.7243 55.5068 97.8349 25.8946 0.0000 7.7516 23.6397 9.4885 -69.3629 32.8623 0.0000 -24.3270 18.6608 24.5066 18.7471 61.6729 -46.9250 -38.9239 -63.8352 0.0000 -66.8775 4.1223 7.7287 -28.1881 33.1476 -0.0000 26.2537 -9.7870 39.1495 -12.5698
 -3.9248 5.6320 -12.0540 34.9594 -32.0416 55.9291 -87.5948 -44.5159 25.9672 127.8175 0.0000 0.0000 15.4628 6.4332 15.7504 0.5410 -0.0000 -0.0000 18.7348 -36.2495 53.6245 155.6885 -0.0000 0.0000 49.3819 -21.1587 14.2119 -39.1401 0.0000 -0.0000 -9.0335 -9.5701 -18.2152 10.0138 -16.8639 -11.2938 -38.6974 55.4539 97.8237 25.9090 0.0000 7.8158 23.6826 9.4802 -69.4177 32.8623 0.0000 -24.3270 18.6176 24.4643 18.7645 61.7408 -46.9471 -38.8657 -63.8236 0.0000 -66.8871 4.1216 7.7282 -28.1855 33.1476 -0.0000 26.2537 -9.8222 39.1341 -12.5652
 -3.9268 5.6324 -12.0544 34.9529 -32.0372 55.9264 -87.5895 -44.5165 25.9648 127.8113 -0.0000 -0.0000 15.4684 6.4222 15.7635 0.5460 -0.0000 -0.0000 18.7197 -36.2500 53.6149 155.6886 0.0000 -0.0000 49.3678 -21.1561 14.1938 -39.1921 -0.0000 0.0000 -9.0512 -9.5450 -18.1888 10.0157 -16.8604 -11.3074 -38.6581 55.4346 97.8067 25.9186 0.0000 7.8210 23.6788 9.4515 -69.4708 32.8623 0.0000 -24.3270 18.5952 24.4297 18.7640 61.7997 -46.9617 -38.8158 -63.8047 0.0000 -66.9060 4.1280 7.7449 -28.1713 33.1476 -0.0000 26.2537 -9.8514 39.1656 -12.5601
 -3.9284 5.6333 -12.0551 34.9477 -32.0317 55.9259 -87.5824 -44.5075 25.9657 127.8082 -0.0000 -0.0000 15.4435 6.4303 15.7810 0.5851 -0.0000 -0.0000 18.6928 -36.2489 53.6020 155.6960 0.0000 0.0000 49.3255 -21.1238 14.1606 -39.1582 0.0000 0.0000 -9.0679 -9.5138 -18.1627 10.0344 -16.8595 -11.3275 -38.6417 55.4416 97.7988 25.9377 0.0000 7.7163 23.7333 9.4698 -69.4834 32.8623 0.0000 -24.3270 18.5942 24.3815 18.7663 61.8113 -46.9748 -38.8075 -63.7796 0.0000 -66.8972 4.1242 7.7379 -28.1708 33.1476 -0.0000 26.2537 -9.8652 39.1835 -12.5740
 -3.9306 5.6339 -12.0557 34.9347 -32.0192 55.9116 -87.5932 -44.4987 25.9523 127.8039 -0.0000 -0.0000 15.4216 6.4509 15.7894 0.6522 0.0000 0.0000 18.6905 -36.2614 53.6156 155.6984 0.0000 0.0000 49.3001 -21.1098 14.0868 -39.1372 0.0000 0.0000 -9.0822 -9.4900 -18.1308 10.0226 -16.8619 -11.3498 -38.5981 55.4217 97.7907 25.9312 0.0000 7.7279 23.7507 9.4383 -69.5609 32.8623 0.0000 -24.3270 18.6200 24.3344 18.7607 61.7781 -46.9776 -38.8267 -63.7566 0.0000 -66.8911 4.1285 7.7449 -28.1738 33.1476 -0.0000 26.2537 -9.8989 39.1855 -12.5707
 -3.9325 5.6350 -12.0567 34.9209 -32.0109 55.9018 -87.5926 -44.4973 25.9406 127.7997 -0.0000 0.0000 15.4088 6.4460 15.7653 0.6566 -0.0000 -0.0000 18.6743 -36.2748 53.6169 155.7015 0.0000 0.0000 49.2795 -21.0966 14.0691 -39.1390 -0.0000 0.0000 -9.0964 -9.4842 -18.1082 10.0056 -16.8536 -11.3755 -38.5561 55.4334 97.7775 25.9520 0.0000 7.6929 23.7293 9.4446 -69.5294 32.8623 0.0000 -24.3270 18.6115 24.2895 18.7731 61.7508 -46.9789 -38.8785 -63.7341 0.0000 -66.7664 4.1277 7.6766 -28.3803 33.1476 -0.0000 26.2537 -9.9652 39.2259 -12.5390
 -3.9351 5.6355 -12.0574 34.9048 -32.0034 55.8856 -87.5875 -44.5126 25.9327 127.7878 -0.0000 0.0000 15.2388 6.5710 15.2375 0.4039 -0.0000 -0.0000 18.6725 -36.2867 53.6274 155.7003 0.0000 -0.0000 49.2784 -21.0740 14.0134 -39.1540 -0.0000 -0.0000 -9.1188 -9.4944 -18.0817 9.9935 -16.8323 -11.4000 -38.5295 55.4474 97.7749 25.9516 0.0000 7.6619 23.7417 9.4737 -69.4833 32.8623 0.0000 -24.3270 18.6332 24.2629 18.7780 61.7181 -46.9947 -38.9291 -63.6932 0.0000 -66.8291 4.1199 7.7266 -28.1804 33.1476 -0.0000 26.2537 -10.0338 39.2946 -12.5030
 -3.9367 5.6371 -12.0573 34.8993 -31.9969 55.8835 -87.5962 -44.5141 25.9173 127.7904 -0.0000 0.0000 15.2232 6.5807 15.1700 0.4381 -0.0000 -0.0000 18.6587 -36.2922 53.6184 155.7022 -0.0000 -0.0000 49.3028 -21.0762 14.0059 -39.2426 0.0000 -0.0000 -9.1435 -9.4910 -18.0601 9.9788 -16.8328 -11.4145 -38.5025 55.4712 97.7636 25.9552 0.0000 7.6458 23.7923 9.5139 -69.4494 32.8623 0.0000 -24.3270 18.6724 24.2431 18.7729 61.6519 -47.0135 -38.9854 -63.6656 0.0000 -66.7611 4.1279 7.6832 -28.3606 33.1476 -0.0000 26.2537 -10.1084 39.3602 -12.4671
 -3.9390 5.6381 -12.0585 34.8887 -31.9897 55.8722 -87.5813 -44.5182 25.9147 127.7828 -0.0000 0.0000 15.2179 6.5621 15.2189 0.4431 -0.0000 0.0000 18.6622 -36.3025 53.6305 155.7039 0.0000 0.0000 49.3164 -21.0846 13.9896 -39.3070 0.0000 0.0000 -9.1714 -9.5145 -18.0394 9.9494 -16.8088 -11.4358 -38.4816 55.4938 97.7734 25.9496 0.0000 7.6449 23.7484 9.5099 -69.4182 32.8623 0.0000 -24.3270 18.6638 24.2191 18.7828 61.6427 -47.0280 -39.0480 -63.6388 0.0000 -66.7610 4.1268 7.6767 -28.3744 33.1476 -0.0000 26.2537 -10.2004 39.4542 -12.4189
 -3.9407 5.6388 -12.0590 34.8807 -31.9878 55.8653 -87.5853 -44.5192 25.9019 127.7778 0.0000 0.0000 15.2135 6.5889 15.1299 0.5028 -0.0000 -0.0000 18.6655 -36.3066 53.6318 155.7082 0.0000 -0.0000 49.3210 -21.0934 13.9799 -39.2321 0.0000 0.0000 -9.1895 -9.5261 -18.0181 9.9478 -16.8103 -11.4376 -38.4817 55.5057 97.7722 25.9546 0.0000 7.6502 23.7617 9.5375 -69.3759 32.8623 0.0000 -24.3270 18.6547 24.2000 18.7826 61.6717 -47.0510 -39.0500 -63.6343 0.0000 -66.7484 4.1189 7.6715 -28.3446 33.1476 -0.0000 26.2537 -10.3006 39.5314 -12.3857
 -3.9415 5.6401 -12.0597 34.8806 -31.9901 55.8671 -87.5709 -44.4935 25.9122 127.7764 -0.0000 0.0000 15.3698 6.4706 15.6767 0.7321 0.0000 0.0000 18.6649 -36.3005 53.6268 155.7170 0.0000 -0.0000 49.3198 -21.1069 14.0092 -39.3084 0.0000 0.0000 -9.2077 -9.5406 -18.0032 9.9355 -16.7945 -11.4416 -38.4765 55.5027 97.7772 25.9428 0.0000 7.6764 23.7509 9.5242 -69.3923 32.8623 0.0000 -24.3270 18.6161 24.1955 18.7916 61.7216 -47.0792 -39.0385 -63.6215 0.0000 -66.7875 4.1365 7.6988 -28.3624 33.1476 -0.0000 26.2537 -10.4141 39.6095 -12.3416
 -3.9430 5.6402 -12.0605 34.8731 -31.9956 55.8635 -87.5659 -44.5020 25.9159 127.7690 -0.0000 -0.0000 15.2165 6.5990 15.1546 0.5078 0.0000 0.0000 18.6646 -36.2933 53.6209 155.7248 -0.0000 0.0000 49.3143 -21.0933 13.9999 -39.3080 -0.0000 0.0000 -9.2210 -9.5520 -17.9909 9.9390 -16.7895 -11.4416 -38.4832 55.4866 97.7862 25.9412 0.0000 7.7080 23.7625 9.5574 -69.3375 32.8623 0.0000 -24.3270 18.5749 24.1827 18.8109 61.7766 -47.1123 -39.0219 -63.6014 0.0000 -66.8054 4.1461 7.7056 -28.3971 33.1476 -0.0000 26.2537 -10.5332 39.7024 -12.2830
 -3.9443 5.6394 -12.0614 34.8620 -32.0006 55.8562 -87.5406 -44.5102 25.9194 127.7644 0.0000 -0.0000 15.1758 6.6174 15.0788 0.4605 0.0000 -0.0000 18.6589 -36.2883 53.6152 155.7295 -0.0000 -0.0000 49.3091 -21.0647 14.0210 -39.3342 -0.0000 0.0000 -9.2333 -9.5602 -17.9774 9.9582 -16.7851 -11.4403 -38.4949 55.4368 97.7932 25.9364 0.0000 7.7367 23.7941 9.5633 -69.3543 32.8623 0.0000 -24.3270 18.5465 24.1579 18.8254 61.8382 -47.1413 -39.0013 -63.5781 0.0000 -66.9061 4.1397 7.7580 -28.1988 33.1476 -0.0000 26.2537 -10.6351 39.7936 -12.2122
 -3.9456 5.6404 -12.0623 34.8674 -32.0095 55.8568 -87.5185 -44.5042 25.9374 127.7564 0.0000 -0.0000 15.1782 6.6156 15.1120 0.4593 0.0000 0.0000 18.6318 -36.2646 53.5974 155.7382 0.0000 0.0000 49.2640 -21.0482 14.0333 -39.1908 -0.0000 0.0000 -9.2522 -9.5737 -17.9541 9.9402 -16.7545 -11.4445 -38.4704 55.3925 97.7940 25.9221 0.0000 7.8051 23.7970 9.5388 -69.4048 32.8623 0.0000 -24.3270 18.5039 24.1225 18.8246 61.8757 -47.1440 -39.0361 -63.5425 0.0000 -66.9098 4.1508 7.7750 -28.2112 33.1476 -0.0000 26.2537 -10.7220 39.9092 -12.1758
 -3.9475 5.6423 -12.0624 34.8546 -32.0149 55.8753 -87.5253 -44.4746 25.9250 127.7580 -0.0000 0.0000 15.1907 6.6057 15.1265 0.5016 0.0000 0.0000 18.5327 -36.2629 53.4980 155.7452 0.0000 0.0000 49.2486 -20.9639 13.9950 -39.2719 -0.0000 0.0000 -9.2618 -9.5697 -17.9798 9.9164 -16.7486 -11.4265 -38.4186 55.3785 97.7786 25.9275 0.0000 7.8251 23.8011 9.5421 -69.4020 32.8623 0.0000 -24.3270 18.4533 24.0603 18.8477 61.9024 -47.1359 -39.0954 -63.5057 0.0000 -66.8901 4.1501 7.7675 -28.2300 33.1476 -0.0000 26.2537 -10.8234 39.9990 -12.1002
 -3.9463 5.6411 -12.0629 34.8446 -32.0214 55.8571 -87.5115 -44.4950 25.9263 127.7561 -0.0000 -0.0000 15.1826 6.6054 15.1108 0.4573 -0.0000 -0.0000 18.5472 -36.2538 53.5289 155.7722 0.0000 0.0000 49.1297 -20.8909 14.1356 -39.0334 0.0000 0.0000 -9.2782 -9.5946 -17.9548 9.9323 -16.7177 -11.4333 -38.4254 55.3568 97.7697 25.9158 0.0000 7.8476 23.8507 9.5806 -69.3708 32.8623 0.0000 -24.3270 18.4619 24.0341 18.8673 61.8603 -47.1807 -39.1805 -63.4600 0.0000 -66.7509 4.1502 7.7042 -28.4253 33.1476 -0.0000 26.2537 -10.8982 40.1171 -12.0301
